<?xml version="1.0" standalone="no"?>
<!DOCTYPE svg PUBLIC "-//W3C//DTD SVG 20010904//EN"
 "http://www.w3.org/TR/2001/REC-SVG-20010904/DTD/svg10.dtd">
<svg version="1.0" xmlns="http://www.w3.org/2000/svg"
 width="529.000000pt" height="263.000000pt" viewBox="0 0 529.000000 263.000000"
 preserveAspectRatio="xMidYMid meet">
<metadata>
Created by potrace 1.15, written by Peter Selinger 2001-2017
</metadata>
<g transform="translate(0.000000,263.000000) scale(0.100000,-0.100000)"
fill="#000000" stroke="none">
<path d="M596 2535 c-296 -75 -528 -334 -565 -632 -11 -84 -2 -200 20 -278 23
-83 82 -179 154 -250 81 -82 160 -127 271 -155 76 -20 118 -20 2128 -20 2243
0 2107 4 2218 -57 65 -35 153 -130 184 -198 38 -82 51 -170 37 -251 -25 -146
-118 -271 -248 -335 -67 -33 -74 -34 -186 -34 -113 0 -116 1 -191 38 -55 26
-92 54 -132 98 -31 33 -56 64 -56 70 0 5 -50 9 -115 9 -77 0 -115 -4 -115 -11
0 -36 82 -161 151 -230 62 -63 93 -85 170 -122 118 -56 164 -67 284 -67 203 0
375 80 503 233 100 120 146 251 146 417 0 99 -4 126 -28 195 -40 117 -80 181
-165 265 -79 78 -149 121 -261 162 l-65 23 -2100 5 -2100 5 -57 28 c-190 93
-273 344 -189 568 49 127 139 227 258 286 63 31 87 37 158 41 107 6 163 -9
235 -59 59 -41 101 -92 139 -166 l21 -43 120 0 120 0 -6 28 c-23 95 -108 237
-182 303 -60 53 -118 86 -201 117 -85 31 -264 40 -355 17z"/>
<path d="M3830 1938 c-57 -29 -90 -78 -90 -132 0 -58 29 -89 130 -139 72 -35
85 -46 88 -69 4 -37 -31 -68 -78 -68 -39 0 -74 25 -85 60 -5 17 -15 20 -56 20
-47 0 -50 -1 -44 -22 4 -13 9 -32 12 -43 16 -59 83 -95 176 -95 51 0 71 5 104
26 47 31 73 78 73 134 0 53 -39 96 -120 133 -101 45 -122 74 -82 110 39 35
132 11 132 -34 0 -18 6 -20 48 -17 45 3 47 4 45 31 -7 97 -151 158 -253 105z"/>
<path d="M1046 1790 c-30 -174 -29 -212 7 -268 32 -48 84 -72 157 -72 70 0
114 16 154 56 47 48 65 96 91 256 14 84 28 161 31 171 5 14 -2 17 -44 17 l-49
0 -28 -165 c-17 -99 -36 -177 -47 -196 -26 -43 -81 -64 -130 -50 -76 23 -82
63 -43 272 14 74 25 135 25 137 0 1 -21 2 -48 2 l-47 0 -29 -160z"/>
<path d="M1585 1918 c-3 -18 -21 -122 -40 -230 -19 -109 -35 -207 -35 -218 0
-20 4 -20 168 -18 l167 3 3 43 3 42 -115 0 c-104 0 -116 2 -116 18 0 9 14 93
30 187 17 93 30 177 30 187 0 15 -8 18 -45 18 -42 0 -44 -2 -50 -32z"/>
<path d="M1900 1936 c0 -7 -3 -28 -6 -45 l-6 -31 76 0 c42 0 76 -2 76 -5 0 -2
-16 -90 -35 -195 -19 -105 -35 -195 -35 -200 0 -15 87 -12 93 3 2 6 19 99 37
205 l34 192 73 0 c70 0 74 1 83 26 6 14 10 34 10 45 0 18 -9 19 -200 19 -163
0 -200 -3 -200 -14z"/>
<path d="M2360 1945 c0 -2 -11 -69 -25 -147 -31 -176 -31 -203 -2 -259 32 -61
84 -89 163 -89 77 0 121 18 166 68 44 48 51 70 83 252 14 80 27 153 29 163 4
14 -3 17 -43 17 l-48 0 -31 -170 c-18 -95 -39 -181 -49 -196 -50 -77 -177 -60
-196 26 -3 14 7 96 22 183 l27 157 -48 0 c-26 0 -48 -2 -48 -5z"/>
<path d="M2876 1923 c-3 -16 -22 -118 -41 -228 -20 -110 -38 -210 -40 -222 -5
-21 -2 -23 44 -23 l48 0 14 88 14 87 50 0 49 0 38 -85 37 -85 51 -3 c60 -4 60
-8 5 113 l-34 73 40 27 c53 35 79 79 79 135 0 54 -27 102 -72 130 -28 17 -51
20 -155 20 l-121 0 -6 -27z m251 -94 c17 -35 1 -82 -33 -98 -14 -6 -55 -11
-91 -11 l-66 0 7 54 c10 89 8 87 95 84 71 -3 77 -5 88 -29z"/>
<path d="M3345 1928 c-4 -18 -48 -260 -80 -445 l-6 -33 181 0 c146 0 180 3
180 14 0 7 3 27 6 44 l6 31 -128 3 -129 3 3 39 c8 86 7 86 137 86 103 0 115 2
115 18 0 9 3 27 6 39 6 22 4 22 -107 25 l-114 3 2 30 c6 78 0 75 133 75 120 0
121 0 130 26 6 14 10 34 10 45 0 18 -9 19 -170 19 -168 0 -170 0 -175 -22z"/>
<path d="M4532 1100 c-107 -22 -199 -94 -247 -196 -25 -50 -29 -71 -30 -144 0
-77 3 -92 33 -152 38 -77 92 -130 171 -167 47 -22 70 -26 141 -26 76 0 93 4
152 33 173 85 242 286 159 464 -62 131 -234 217 -379 188z m120 -82 l21 -37
-26 -58 c-22 -49 -32 -60 -63 -71 -34 -12 -40 -11 -74 13 -71 49 -83 68 -73
116 8 40 13 45 53 61 25 10 66 16 93 15 44 -2 50 -5 69 -39z m187 -75 c17 -20
37 -56 45 -78 13 -40 13 -44 -11 -74 -20 -25 -32 -31 -61 -31 -81 0 -111 11
-132 47 l-20 34 24 57 c38 91 102 110 155 45z m-375 -97 c46 -41 48 -44 42
-82 -6 -35 -14 -44 -67 -77 l-59 -37 -38 17 c-36 18 -37 20 -40 78 -4 71 12
132 36 138 51 13 78 5 126 -37z m322 -131 c46 -6 53 -10 72 -44 l22 -38 -31
-47 c-42 -64 -81 -90 -122 -82 -48 9 -53 15 -69 90 l-16 68 31 34 c18 21 36
33 46 30 9 -3 39 -7 67 -11z m-217 -46 c19 -7 33 -19 36 -32 24 -118 24 -120
2 -148 -32 -41 -89 -36 -175 16 -28 17 -32 25 -32 62 0 40 3 44 53 77 58 38
70 41 116 25z"/>
<path d="M663 1088 c-12 -20 -72 -367 -73 -422 -1 -138 81 -228 219 -242 113
-12 226 45 281 142 27 46 38 86 66 243 18 103 36 210 40 239 l7 52 -56 0 c-31
0 -58 -3 -60 -7 -3 -5 -21 -100 -41 -213 -45 -249 -48 -258 -91 -300 -63 -61
-187 -51 -228 19 -24 41 -21 80 18 295 19 104 32 193 29 198 -8 13 -102 9
-111 -4z"/>
<path d="M1345 1088 c-2 -7 -18 -96 -35 -198 -18 -102 -43 -245 -56 -318 -13
-73 -24 -135 -24 -138 0 -2 27 -4 59 -4 48 0 61 3 64 18 3 9 20 103 38 207 17
105 35 194 39 198 4 4 56 -88 117 -205 l110 -213 60 -3 60 -3 17 98 c39 216
96 549 96 561 0 14 -106 17 -115 3 -3 -5 -21 -99 -40 -208 -19 -109 -38 -205
-41 -213 -3 -9 -49 69 -112 191 -59 113 -113 214 -121 223 -17 20 -109 23
-116 4z"/>
<path d="M2041 1078 c-5 -13 -23 -104 -40 -203 -18 -99 -42 -240 -55 -312
l-23 -133 62 0 62 0 16 98 c9 53 35 200 57 326 21 126 37 233 34 237 -3 5 -28
9 -55 9 -42 0 -51 -3 -58 -22z"/>
<path d="M2253 1088 c-6 -7 -14 -34 -17 -60 l-7 -48 100 0 c56 0 101 -4 101
-9 0 -4 -14 -84 -31 -177 -52 -288 -59 -328 -59 -346 0 -15 9 -18 60 -18 33 0
60 2 60 4 0 16 92 531 96 538 3 4 50 8 104 8 l99 0 6 33 c3 17 6 43 8 57 l2
25 -256 3 c-197 2 -259 -1 -266 -10z"/>
<path d="M2865 1088 c-6 -20 -115 -635 -115 -652 0 -3 105 -6 234 -6 l234 0 6
31 c3 17 6 42 6 55 l0 24 -164 0 c-91 0 -167 3 -169 8 -6 9 17 144 27 160 5 8
51 12 156 12 82 0 151 3 153 8 3 4 8 28 11 55 l7 47 -150 0 c-82 0 -152 4
-155 8 -4 7 1 38 19 119 5 22 9 23 172 25 l167 3 8 45 c5 25 6 51 3 58 -3 9
-58 12 -225 12 -168 0 -222 -3 -225 -12z"/>
<path d="M3456 1092 c-7 -12 -116 -615 -116 -645 0 -17 11 -18 163 -15 154 3
165 4 225 32 80 37 162 123 191 201 59 159 -10 344 -152 405 -41 18 -77 24
-178 28 -87 3 -128 1 -133 -6z m235 -123 c45 -16 87 -55 110 -104 57 -123 -30
-284 -171 -314 -72 -15 -150 -14 -150 2 0 22 70 409 76 418 8 13 95 11 135 -2z"/>
</g>
</svg>
